<svg xmlns="http://www.w3.org/2000/svg" version="1.1"
	xmlns:xlink="http://www.w3.org/1999/xlink"
	color="black"
	width="793.80px" height="1122.66px">
<style type="text/css">
.fill {fill: currentColor}
.stroke {stroke: currentColor; fill: none}
text{white-space: pre}
</style>
<title>C:\Users\ascarneiro\Desktop\TCC\ScoreReader\output\1576010346418.abc page 1</title>
<g stroke-width="0.70">
<!-- title: Exemplo ScoreReader -->
</g>
<g stroke-width="0.70" style="font:20.00px serif">
<text x="396.94" y="81.80" text-anchor="middle">Exemplo ScoreReader</text>
</g>
<g stroke-width="0.70" style="font:italic 14.00px serif">
<text x="725.74" y="105.80" text-anchor="end">Transcrito por prototipo Score Reader Alan Soares Carneiro</text>
</g>
<g stroke-width="0.70" style="font:italic 14.00px serif">
<path class="stroke" stroke-width="1"
	d="M314.14 158.80v-24.00"/>
<path class="stroke" stroke-width="1"
	d="M476.44 158.80v-24.00"/>
<path class="stroke" stroke-width="1"
	d="M695.74 158.80v-24.00"/>
<path d="m68.04 158.80
	h657.70
	M68.04 152.80
	h657.70
	M68.04 146.80
	h657.70
	M68.04 140.80
	h657.70
	M68.04 134.80
	h657.70
	" class="stroke"/>
<defs>
<path id="utclef" class="fill" d="m-50 -90
	c-72 -41 -72 -158 52 -188
	150 -10 220 188 90 256
	-114 52 -275 0 -293 -136
	-15 -181 93 -229 220 -334
	88 -87 79 -133 62 -210
	-51 33 -94 105 -89 186
	17 267 36 374 49 574
	6 96 -19 134 -77 135
	-80 1 -126 -93 -61 -133
	85 -41 133 101 31 105
	23 17 92 37 90 -92
	-10 -223 -39 -342 -50 -617
	0 -90 0 -162 96 -232
	56 72 63 230 22 289
	-74 106 -257 168 -255 316
	9 153 148 185 252 133
	86 -65 29 -192 -80 -176
	-71 12 -105 67 -59 124"/>
<use id="tclef" transform="translate(0,6) scale(0.045)"
	xlink:href="#utclef"/>
</defs>
<use x="80.04" y="152.80" xlink:href="#tclef"/>
<defs>
<path id="usharp" class="fill" d="
	m136 -702
	v890
	h32
	v-890
	m128 840
	h32
	v-888
	h-32
	m-232 286
	v116
	l338 -96
	v-116
	m-338 442
	v116
	l338 -98
	v-114"/>
<use id="sh0" transform="translate(-4,5) scale(0.018)"
	xlink:href="#usharp"/>
</defs>
<use x="95.04" y="134.80" xlink:href="#sh0"/>
<use x="100.54" y="143.80" xlink:href="#sh0"/>
<g style="font:bold 16px serif"
	transform="translate(116.54,158.30) scale(1.2,1)">
	<text text-anchor="middle">4</text>
	<text y="-12" text-anchor="middle">4</text>
</g>
<defs>
<ellipse id="hd" rx="4.1" ry="2.9"
	transform="rotate(-20)" class="fill"/>
</defs>
<use x="134.54" y="161.80" xlink:href="#hd"/>
<path d="M138.04 161.80v-21.00" class="stroke"/>
<use x="183.04" y="161.80" xlink:href="#hd"/>
<path d="M186.54 161.80v-21.00" class="stroke"/>
<use x="231.64" y="149.80" xlink:href="#hd"/>
<path d="M235.14 149.80v-21.00" class="stroke"/>
<use x="280.14" y="149.80" xlink:href="#hd"/>
<path d="M283.64 149.80v-21.00" class="stroke"/>
<use x="331.34" y="146.80" xlink:href="#hd"/>
<path d="M334.84 146.80v-21.00" class="stroke"/>
<use x="379.84" y="146.80" xlink:href="#hd"/>
<path d="M383.34 146.80v-21.00" class="stroke"/>
<defs>
<path id="Hd" class="fill" d="m3 -1.6
	c-1 -1.8 -7 1.4 -6 3.2
	1 1.8 7 -1.4 6 -3.2
	m0.5 -0.3
	c2 3.8 -5 7.6 -7 3.8
	-2 -3.8 5 -7.6 7 -3.8"/>
</defs>
<use x="428.34" y="149.80" xlink:href="#Hd"/>
<path d="M431.84 149.80v-21.00" class="stroke"/>
<use x="493.64" y="152.80" xlink:href="#hd"/>
<path d="M497.14 152.80v-21.00" class="stroke"/>
<use x="542.14" y="152.80" xlink:href="#hd"/>
<path d="M545.64 152.80v-21.00" class="stroke"/>
<use x="590.64" y="155.80" xlink:href="#hd"/>
<path d="M594.14 155.80v-21.00" class="stroke"/>
<use x="639.24" y="155.80" xlink:href="#hd"/>
<path d="M642.74 155.80v-21.00" class="stroke"/>
<defs>
<use id="stclef" transform="translate(0,5.4) scale(0.037)"
	xlink:href="#utclef"/>
</defs>
<use x="677.74" y="152.80" xlink:href="#stclef"/>
<use x="706.74" y="134.80" xlink:href="#sh0"/>
<use x="712.24" y="143.80" xlink:href="#sh0"/>
</g>
<g stroke-width="0.70" style="font:italic 14.00px serif">
<path class="stroke" stroke-width="1"
	d="M287.54 228.80v-24.00"/>
<path class="stroke" stroke-width="1"
	d="M494.94 228.80v-24.00"/>
<path class="stroke" stroke-width="1"
	d="M695.74 228.80v-24.00"/>
<path d="m68.04 228.80
	h657.70
	M68.04 222.80
	h657.70
	M68.04 216.80
	h657.70
	M68.04 210.80
	h657.70
	M68.04 204.80
	h657.70
	" class="stroke"/>
<use x="80.04" y="222.80" xlink:href="#tclef"/>
<use x="95.04" y="204.80" xlink:href="#sh0"/>
<use x="100.54" y="213.80" xlink:href="#sh0"/>
<g style="font:bold 16px serif"
	transform="translate(116.54,228.30) scale(1.2,1)">
	<text text-anchor="middle">4</text>
	<text y="-12" text-anchor="middle">4</text>
</g>
<use x="134.54" y="228.80" xlink:href="#hd"/>
<path d="M138.04 228.80v-21.00" class="stroke"/>
<use x="185.74" y="228.80" xlink:href="#hd"/>
<path d="M189.24 228.80v-21.00" class="stroke"/>
<use x="236.84" y="231.80" xlink:href="#Hd"/>
<path d="M240.34 231.80v-21.00" class="stroke"/>
<use x="305.64" y="219.80" xlink:href="#hd"/>
<path d="M309.14 219.80v-21.00" class="stroke"/>
<use x="356.84" y="219.80" xlink:href="#hd"/>
<path d="M360.34 219.80v-21.00" class="stroke"/>
<use x="407.94" y="222.80" xlink:href="#hd"/>
<path d="M411.44 222.80v-21.00" class="stroke"/>
<use x="459.14" y="222.80" xlink:href="#hd"/>
<path d="M462.64 222.80v-21.00" class="stroke"/>
<use x="513.04" y="225.80" xlink:href="#hd"/>
<path d="M516.54 225.80v-21.00" class="stroke"/>
<use x="564.24" y="225.80" xlink:href="#hd"/>
<path d="M567.74 225.80v-21.00" class="stroke"/>
<use x="615.34" y="228.80" xlink:href="#Hd"/>
<path d="M618.84 228.80v-21.00" class="stroke"/>
<use x="677.74" y="222.80" xlink:href="#stclef"/>
<use x="706.74" y="204.80" xlink:href="#sh0"/>
<use x="712.24" y="213.80" xlink:href="#sh0"/>
</g>
<g stroke-width="0.70" style="font:italic 14.00px serif">
<path class="stroke" stroke-width="1"
	d="M314.14 298.80v-24.00"/>
<path class="stroke" stroke-width="1"
	d="M476.44 298.80v-24.00"/>
<path class="stroke" stroke-width="1"
	d="M695.74 298.80v-24.00"/>
<path d="m68.04 298.80
	h657.70
	M68.04 292.80
	h657.70
	M68.04 286.80
	h657.70
	M68.04 280.80
	h657.70
	M68.04 274.80
	h657.70
	" class="stroke"/>
<use x="80.04" y="292.80" xlink:href="#tclef"/>
<use x="95.04" y="274.80" xlink:href="#sh0"/>
<use x="100.54" y="283.80" xlink:href="#sh0"/>
<g style="font:bold 16px serif"
	transform="translate(116.54,298.30) scale(1.2,1)">
	<text text-anchor="middle">4</text>
	<text y="-12" text-anchor="middle">4</text>
</g>
<use x="134.54" y="289.80" xlink:href="#hd"/>
<path d="M138.04 289.80v-21.00" class="stroke"/>
<use x="183.04" y="289.80" xlink:href="#hd"/>
<path d="M186.54 289.80v-21.00" class="stroke"/>
<use x="231.64" y="292.80" xlink:href="#hd"/>
<path d="M235.14 292.80v-21.00" class="stroke"/>
<use x="280.14" y="292.80" xlink:href="#hd"/>
<path d="M283.64 292.80v-21.00" class="stroke"/>
<use x="331.34" y="295.80" xlink:href="#hd"/>
<path d="M334.84 295.80v-21.00" class="stroke"/>
<use x="379.84" y="295.80" xlink:href="#hd"/>
<path d="M383.34 295.80v-21.00" class="stroke"/>
<use x="428.34" y="298.80" xlink:href="#Hd"/>
<path d="M431.84 298.80v-21.00" class="stroke"/>
<use x="493.64" y="301.80" xlink:href="#hd"/>
<path d="M497.14 301.80v-21.00" class="stroke"/>
<use x="542.14" y="301.80" xlink:href="#hd"/>
<path d="M545.64 301.80v-21.00" class="stroke"/>
<use x="590.64" y="289.80" xlink:href="#hd"/>
<path d="M594.14 289.80v-21.00" class="stroke"/>
<use x="639.24" y="289.80" xlink:href="#hd"/>
<path d="M642.74 289.80v-21.00" class="stroke"/>
<use x="677.74" y="292.80" xlink:href="#stclef"/>
<use x="706.74" y="274.80" xlink:href="#sh0"/>
<use x="712.24" y="283.80" xlink:href="#sh0"/>
</g>
<g stroke-width="0.70" style="font:italic 14.00px serif">
<path class="stroke" stroke-width="1"
	d="M326.74 368.80v-24.00"/>
<path class="stroke" stroke-width="1"
	d="M587.34 368.80v-24.00"/>
<path class="stroke" stroke-width="3"
	d="M724.24 368.80v-24.00"/>
<path class="stroke" stroke-width="1"
	d="M719.74 368.80v-24.00"/>
<path class="stroke" stroke-width="1"
	d="M716.74 368.80v-24.00"/>
<path d="m68.04 368.80
	h657.70
	M68.04 362.80
	h657.70
	M68.04 356.80
	h657.70
	M68.04 350.80
	h657.70
	M68.04 344.80
	h657.70
	" class="stroke"/>
<use x="80.04" y="362.80" xlink:href="#tclef"/>
<use x="95.04" y="344.80" xlink:href="#sh0"/>
<use x="100.54" y="353.80" xlink:href="#sh0"/>
<g style="font:bold 16px serif"
	transform="translate(116.54,368.30) scale(1.2,1)">
	<text text-anchor="middle">4</text>
	<text y="-12" text-anchor="middle">4</text>
</g>
<use x="134.54" y="356.80" xlink:href="#hd"/>
<path d="M138.04 356.80v-21.00" class="stroke"/>
<use x="198.84" y="356.80" xlink:href="#hd"/>
<path d="M202.34 356.80v-21.00" class="stroke"/>
<defs>
<rect id="r2" class="fill"
	x="-3.5" y="-3" width="7" height="3"/>
</defs>
<use x="263.14" y="356.80" xlink:href="#r2"/>
<use x="349.54" y="362.80" xlink:href="#hd"/>
<path d="M353.04 362.80v-21.00" class="stroke"/>
<use x="413.74" y="362.80" xlink:href="#hd"/>
<path d="M417.24 362.80v-21.00" class="stroke"/>
<use x="478.04" y="365.80" xlink:href="#hd"/>
<path d="M481.54 365.80v-21.00" class="stroke"/>
<use x="542.34" y="365.80" xlink:href="#hd"/>
<path d="M545.84 365.80v-21.00" class="stroke"/>
<use x="610.04" y="368.80" xlink:href="#hd"/>
<path d="M613.54 368.80v-21.00" class="stroke"/>
<use x="674.34" y="368.80" xlink:href="#hd"/>
<path d="M677.84 368.80v-21.00" class="stroke"/>
</g>
</svg>